<svg version="1.1" viewBox="0.0 0.0 166.45931758530185 210.51181102362204" fill="none" stroke="none" stroke-linecap="square" stroke-miterlimit="10" xmlns:xlink="http://www.w3.org/1999/xlink" xmlns="http://www.w3.org/2000/svg"><clipPath id="p.0"><path d="m0 0l166.45932 0l0 210.51181l-166.45932 0l0 -210.51181z" clip-rule="nonzero"/></clipPath><g clip-path="url(#p.0)"><path fill="#000000" fill-opacity="0.0" d="m0 0l166.45932 0l0 210.51181l-166.45932 0z" fill-rule="evenodd"/><path fill="#ffffff" d="m6.423991 6.836637l153.51181 0l0 197.51181l-153.51181 0z" fill-rule="evenodd"/><path stroke="#000000" stroke-width="2.0" stroke-linejoin="round" stroke-linecap="butt" d="m6.423991 6.836637l153.51181 0l0 197.51181l-153.51181 0z" fill-rule="evenodd"/><path fill="#000000" fill-opacity="0.0" d="m154.424 100.72167l-107.65355 0" fill-rule="evenodd"/><path stroke="#ffffff" stroke-width="2.0" stroke-linejoin="round" stroke-linecap="butt" d="m154.424 100.72167l-107.65355 0" fill-rule="evenodd"/><path fill="#000000" fill-opacity="0.0" d="m47.943264 182.83664l-0.12598419 -38.29921" fill-rule="evenodd"/><path stroke="#ffffff" stroke-width="2.0" stroke-linejoin="round" stroke-linecap="butt" d="m47.943264 182.83664l-0.12598419 -38.29921" fill-rule="evenodd"/><path fill="#000000" fill-opacity="0.0" d="m48.342293 126.29318l-0.15747833 -26.047241" fill-rule="evenodd"/><path stroke="#ffffff" stroke-width="2.0" stroke-linejoin="round" stroke-linecap="butt" d="m48.342293 126.29318l-0.15747833 -26.047241" fill-rule="evenodd"/><path fill="#000000" fill-opacity="0.0" d="m48.439907 125.4753l41.98425 -7.0866165" fill-rule="evenodd"/><path stroke="#ffffff" stroke-width="2.0" stroke-linejoin="round" stroke-linecap="butt" d="m48.439907 125.4753l41.98425 -7.0866165" fill-rule="evenodd"/><path fill="#000000" fill-opacity="0.0" d="m90.18135 117.68959l0.15747833 35.46457" fill-rule="evenodd"/><path stroke="#ffffff" stroke-width="2.0" stroke-linejoin="round" stroke-linecap="butt" d="m90.18135 117.68959l0.15747833 35.46457" fill-rule="evenodd"/><path fill="#000000" fill-opacity="0.0" d="m90.27896 152.33345l-41.82677 -6.86615" fill-rule="evenodd"/><path stroke="#ffffff" stroke-width="2.0" stroke-linejoin="round" stroke-linecap="butt" d="m90.27896 152.33345l-41.82677 -6.86615" fill-rule="evenodd"/><path fill="#000000" fill-opacity="0.0" d="m-4.576009 37.83926l173.66928 0l0 26.047245l-173.66928 0z" fill-rule="evenodd"/><path fill="#000000" d="m16.977846 55.69176l0 5.109375l8.109375 0l0 2.640625l-8.109375 0l0 6.437504l-3.124999 0l0 -16.796879l12.265624 0l0 2.609375l-9.140625 0zm23.16295 14.187504l-3.4375 -4.921875q-0.21875 0.03125 -0.640625 0.03125l-3.796875 0l0 4.890625l-3.125002 0l0 -16.796879l6.921877 0q2.1875 0 3.796875 0.71875q1.625 0.71875 2.484375 2.0625q0.859375 1.34375 0.859375 3.1875q0 1.90625 -0.921875 3.28125q-0.921875 1.359375 -2.640625 2.0312538l3.859375 5.515625l-3.359375 0zm-0.078125 -10.828129q0 -1.609375 -1.0625 -2.46875q-1.046875 -0.859375 -3.078125 -0.859375l-3.65625 0l0 6.6875l3.65625 0q2.03125 0 3.078125 -0.875q1.0625 -0.875 1.0625 -2.484375zm14.481445 11.062504q-2.578125 0 -4.640625 -1.109375q-2.0625 -1.109375 -3.234375 -3.09375q-1.171875 -1.9843788 -1.171875 -4.437504q0 -2.4375 1.171875 -4.421875q1.171875 -1.984375 3.234375 -3.09375q2.0625 -1.125 4.640625 -1.125q2.5625 0 4.625 1.125q2.0625 1.109375 3.234375 3.078125q1.1875 1.96875 1.1875 4.4375q0 2.484375 -1.1875 4.453129q-1.171875 1.96875 -3.234375 3.078125q-2.0625 1.109375 -4.625 1.109375zm0 -2.734375q1.671875 0 3.015625 -0.75q1.34375 -0.765625 2.109375 -2.109375q0.78125 -1.3593788 0.78125 -3.0468788q0 -1.671875 -0.78125 -3.03125q-0.765625 -1.359375 -2.109375 -2.109375q-1.34375 -0.75 -3.015625 -0.75q-1.6875 0 -3.03125 0.75q-1.34375 0.75 -2.109375 2.109375q-0.765625 1.359375 -0.765625 3.03125q0 1.6875 0.765625 3.0468788q0.765625 1.34375 2.109375 2.109375q1.34375 0.75 3.03125 0.75zm27.286068 -14.296879l0 16.796879l-2.578125 0l-9.25 -11.375004l0 11.375004l-3.109375 0l0 -16.796879l2.578125 0l9.265625 11.375004l0 -11.375004l3.09375 0zm12.283691 17.031254q-2.546875 0 -4.59375 -1.109375q-2.046875 -1.109375 -3.21875 -3.078125q-1.15625 -1.9687538 -1.15625 -4.453129q0 -2.46875 1.171875 -4.4375q1.171875 -1.96875 3.21875 -3.078125q2.0625 -1.125 4.609375 -1.125q2.0625 0 3.765625 0.734375q1.703125 0.71875 2.875 2.078125l-2.015625 1.890625q-1.828125 -1.953125 -4.484375 -1.953125q-1.734375 0 -3.109375 0.75q-1.359375 0.75 -2.125 2.09375q-0.765625 1.34375 -0.765625 3.046875q0 1.703125 0.765625 3.0468788q0.765625 1.34375 2.125 2.109375q1.375 0.75 3.109375 0.75q2.65625 0 4.484375 -1.984375l2.015625 1.921875q-1.171875 1.359375 -2.890625 2.078125q-1.71875 0.71875 -3.78125 0.71875zm22.729202 -2.875l0 2.640625l-14.328125 0l0 -2.09375l9.890625 -12.062504l-9.71875 0l0 -2.640625l13.84375 0l0 2.078125l-9.890625 12.078129l10.203125 0zm13.755722 -1.25l-8.406265 0l-1.65625 3.890625l-3.21875 0l7.5625076 -16.796879l3.078125 0l7.5781326 16.796879l-3.265625 0l-1.671875 -3.890625zm-1.03125 -2.4531288l-3.1718826 -7.34375l-3.1406326 7.34375l6.3125153 0zm13.897827 -0.6875l-2.671875 2.7343788l0 4.296875l-3.125 0l0 -16.796879l3.125 0l0 8.609375l8.3125 -8.609375l3.5 0l-7.0625 7.515625l7.484375 9.281254l-3.640625 0l-5.921875 -7.031254z" fill-rule="nonzero"/><path fill="#000000" fill-opacity="0.0" d="m-4.576009 -6.0819983l173.66928 0l0 26.047245l-173.66928 0z" fill-rule="evenodd"/><path fill="#000000" d="m23.62926 33.15675l-5.03125 5.171875l0 8.109375l-5.890624 0l0 -31.734375l5.890624 0l0 16.28125l15.687502 -16.28125l6.609375 0l-13.328127 14.187499l14.140627 17.546877l-6.890625 0l-11.187502 -13.28125zm45.91922 8.34375l0 4.9375l-23.796871 0l0 -31.734375l23.156246 0l0 4.953124l-17.265621 0l0 8.234375l15.312496 0l0 4.859377l-15.312496 0l0 8.75l17.906246 0zm35.572983 -26.796875l-13.8125 31.734375l-5.8125 0l-13.875 -31.734375l6.40625 0l10.546875 24.484375l10.65625 -24.484375l5.890625 0zm4.04422 0l5.890625 0l0 31.734375l-5.890625 0l0 -31.734375zm42.64717 0l0 31.734375l-4.84375 0l-17.5 -21.484377l0 21.484377l-5.8437576 0l0 -31.734375l4.8437576 0l17.5 21.484375l0 -21.484375l5.84375 0z" fill-rule="nonzero"/><path fill="#000000" fill-opacity="0.0" d="m-3.076009 173.918l173.66928 0l0 26.047241l-173.66928 0z" fill-rule="evenodd"/><path fill="#000000" d="m20.449411 197.13863q-1.546875 0 -2.8125 -0.671875q-1.25 -0.6875 -1.968749 -1.890625q-0.703125 -1.203125 -0.703125 -2.703125q0 -1.515625 0.71875 -2.71875q0.71874905 -1.203125 1.968749 -1.875q1.265625 -0.6875 2.8125 -0.6875q1.265625 0 2.296875 0.4375q1.046875 0.4375 1.765625 1.28125l-1.234375 1.15625q-1.109375 -1.203125 -2.734375 -1.203125q-1.0625 0 -1.90625 0.46875q-0.828125 0.453125 -1.296875 1.28125q-0.46875 0.8125 -0.46875 1.859375q0 1.03125 0.46875 1.859375q0.46875 0.8125 1.296875 1.28125q0.84375 0.453125 1.90625 0.453125q1.625 0 2.734375 -1.203125l1.234375 1.171875q-0.71875 0.828125 -1.765625 1.265625q-1.046875 0.4375 -2.3125 0.4375zm10.327011 0q-2.125 0 -3.3125 -1.1875q-1.1875 -1.203125 -1.1875 -3.421875l0 -5.796875l1.890625 0l0 5.71875q0 3.015625 2.609375 3.015625q2.593752 0 2.593752 -3.015625l0 -5.71875l1.890625 0l0 5.796875q0 2.21875 -1.1875 3.421875q-1.171875 1.1875 -3.296877 1.1875zm10.329454 0q-1.1875 0 -2.296875 -0.328125q-1.109375 -0.34375 -1.75 -0.890625l0.65625 -1.484375q0.625 0.5 1.546875 0.8125q0.921875 0.3125 1.84375 0.3125q1.140625 0 1.703125 -0.359375q0.5625 -0.375 0.5625 -0.96875q0 -0.4375 -0.3125 -0.71875q-0.3125 -0.296875 -0.796875 -0.453125q-0.484375 -0.171875 -1.328125 -0.375q-1.171875 -0.28125 -1.90625 -0.546875q-0.71875 -0.28125 -1.234375 -0.875q-0.515625 -0.59375 -0.515625 -1.609375q0 -0.84375 0.453125 -1.53125q0.46875 -0.703125 1.390625 -1.109375q0.9375 -0.421875 2.28125 -0.421875q0.9375 0 1.84375 0.234375q0.921875 0.234375 1.578125 0.671875l-0.59375 1.484375q-0.6875 -0.390625 -1.421875 -0.59375q-0.71875 -0.21875 -1.421875 -0.21875q-1.125 0 -1.671875 0.390625q-0.546875 0.375 -0.546875 1.0q0 0.453125 0.3125 0.734375q0.3125 0.265625 0.796875 0.4375q0.484375 0.15625 1.328125 0.359375q1.140625 0.265625 1.875 0.546875q0.734375 0.28125 1.25 0.875q0.515625 0.578125 0.515625 1.578125q0 0.859375 -0.46875 1.546875q-0.453125 0.6875 -1.390625 1.09375q-0.9375 0.40625 -2.28125 0.40625zm8.109436 -8.78125l-3.390625 0l0 -1.625l8.703125 0l0 1.625l-3.40625 0l0 8.640625l-1.90625 0l0 -8.640625zm11.54184 8.78125q-1.5625 0 -2.828125 -0.671875q-1.265625 -0.6875 -1.984375 -1.890625q-0.71875 -1.21875 -0.71875 -2.703125q0 -1.5 0.71875 -2.703125q0.71875 -1.21875 1.984375 -1.890625q1.265625 -0.6875 2.828125 -0.6875q1.5625 0 2.828125 0.6875q1.2656212 0.671875 1.9843712 1.875q0.71875 1.203125 0.71875 2.71875q0 1.5 -0.71875 2.703125q-0.71875 1.203125 -1.9843712 1.890625q-1.265625 0.671875 -2.828125 0.671875zm0 -1.671875q1.03125 0 1.84375 -0.453125q0.828125 -0.46875 1.296875 -1.296875q0.4687462 -0.828125 0.4687462 -1.84375q0 -1.03125 -0.4687462 -1.859375q-0.46875 -0.828125 -1.296875 -1.28125q-0.8125 -0.46875 -1.84375 -0.46875q-1.03125 0 -1.859375 0.46875q-0.8125 0.453125 -1.28125 1.28125q-0.46875 0.828125 -0.46875 1.859375q0 1.015625 0.46875 1.84375q0.46875 0.828125 1.28125 1.296875q0.828125 0.453125 1.859375 0.453125zm16.965603 1.53125l-0.015625 -6.796875l-3.359375 5.625l-0.859375 0l-3.375 -5.546875l0 6.71875l-1.8125 0l0 -10.265625l1.578125 0l4.0625 6.8125l4.0 -6.8125l1.578125 0l0.015625 10.265625l-1.8125 0zm8.620026 -10.265625l4.484375 0q1.640625 0 2.90625 0.640625q1.28125 0.640625 1.984375 1.8125q0.71875 1.15625 0.71875 2.6875q0 1.515625 -0.71875 2.6875q-0.703125 1.15625 -1.984375 1.796875q-1.265625 0.640625 -2.90625 0.640625l-4.484375 0l0 -10.265625zm4.40625 8.65625q1.125 0 1.984375 -0.4375q0.859375 -0.4375 1.3125 -1.234375q0.46875 -0.796875 0.46875 -1.84375q0 -1.0625 -0.46875 -1.859375q-0.453125 -0.796875 -1.3125 -1.21875q-0.859375 -0.4375 -1.984375 -0.4375l-2.5 0l0 7.03125l2.5 0zm15.402985 0.015625l0 1.59375l-7.703125 0l0 -10.265625l7.484375 0l0 1.609375l-5.578125 0l0 2.65625l4.953125 0l0 1.578125l-4.953125 0l0 2.828125l5.796875 0zm5.3040924 1.734375q-1.1875 0 -2.296875 -0.328125q-1.109375 -0.34375 -1.75 -0.890625l0.65625 -1.484375q0.625 0.5 1.546875 0.8125q0.921875 0.3125 1.84375 0.3125q1.140625 0 1.703125 -0.359375q0.5625 -0.375 0.5625 -0.96875q0 -0.4375 -0.3125 -0.71875q-0.3125 -0.296875 -0.796875 -0.453125q-0.484375 -0.171875 -1.328125 -0.375q-1.171875 -0.28125 -1.90625 -0.546875q-0.71875 -0.28125 -1.234375 -0.875q-0.515625 -0.59375 -0.515625 -1.609375q0 -0.84375 0.453125 -1.53125q0.46875 -0.703125 1.390625 -1.109375q0.9375 -0.421875 2.28125 -0.421875q0.9375 0 1.84375 0.234375q0.921875 0.234375 1.578125 0.671875l-0.59375 1.484375q-0.6875 -0.390625 -1.421875 -0.59375q-0.71875 -0.21875 -1.421875 -0.21875q-1.125 0 -1.671875 0.390625q-0.546875 0.375 -0.546875 1.0q0 0.453125 0.3125 0.734375q0.3125 0.265625 0.796875 0.4375q0.484375 0.15625 1.328125 0.359375q1.140625 0.265625 1.875 0.546875q0.734375 0.28125 1.25 0.875q0.515625 0.578125 0.515625 1.578125q0 0.859375 -0.46875 1.546875q-0.453125 0.6875 -1.390625 1.09375q-0.9375 0.40625 -2.28125 0.40625zm6.031311 -10.40625l1.90625 0l0 10.265625l-1.90625 0l0 -10.265625zm11.690987 5.015625l1.796875 0l0 4.09375q-0.796875 0.625 -1.859375 0.96875q-1.046875 0.328125 -2.1562576 0.328125q-1.5625 0 -2.828125 -0.671875q-1.265625 -0.6875 -1.984375 -1.890625q-0.71875 -1.203125 -0.71875 -2.703125q0 -1.515625 0.71875 -2.71875q0.71875 -1.203125 1.984375 -1.875q1.265625 -0.6875 2.859375 -0.6875q1.2812576 0 2.3281326 0.421875q1.0625 0.421875 1.78125 1.25l-1.203125 1.171875q-1.171875 -1.171875 -2.8281326 -1.171875q-1.078125 0 -1.921875 0.453125q-0.84375 0.453125 -1.328125 1.28125q-0.46875 0.8125 -0.46875 1.875q0 1.015625 0.46875 1.84375q0.484375 0.8125 1.328125 1.28125q0.84375 0.46875 1.90625 0.46875q1.2031326 0 2.1250076 -0.515625l0 -3.203125zm13.424042 -5.015625l0 10.265625l-1.578125 0l-5.65625 -6.953125l0 6.953125l-1.890625 0l0 -10.265625l1.578125 0l5.65625 6.953125l0 -6.953125l1.890625 0zm5.9341125 10.40625q-1.1875 0 -2.296875 -0.328125q-1.109375 -0.34375 -1.75 -0.890625l0.65625 -1.484375q0.625 0.5 1.546875 0.8125q0.921875 0.3125 1.84375 0.3125q1.140625 0 1.703125 -0.359375q0.5625 -0.375 0.5625 -0.96875q0 -0.4375 -0.3125 -0.71875q-0.3125 -0.296875 -0.796875 -0.453125q-0.484375 -0.171875 -1.328125 -0.375q-1.171875 -0.28125 -1.90625 -0.546875q-0.71875 -0.28125 -1.234375 -0.875q-0.515625 -0.59375 -0.515625 -1.609375q0 -0.84375 0.453125 -1.53125q0.46875 -0.703125 1.390625 -1.109375q0.9375 -0.421875 2.28125 -0.421875q0.9375 0 1.84375 0.234375q0.921875 0.234375 1.578125 0.671875l-0.59375 1.484375q-0.6875 -0.390625 -1.421875 -0.59375q-0.71875 -0.21875 -1.421875 -0.21875q-1.125 0 -1.671875 0.390625q-0.546875 0.375 -0.546875 1.0q0 0.453125 0.3125 0.734375q0.3125 0.265625 0.796875 0.4375q0.484375 0.15625 1.328125 0.359375q1.140625 0.265625 1.875 0.546875q0.734375 0.28125 1.25 0.875q0.515625 0.578125 0.515625 1.578125q0 0.859375 -0.46875 1.546875q-0.453125 0.6875 -1.390625 1.09375q-0.9375 0.40625 -2.28125 0.40625z" fill-rule="nonzero"/><path fill="#000000" d="m13.59197 75.14372l139.27559 0l0 106.61418l-139.27559 0z" fill-rule="evenodd"/><path stroke="#000000" stroke-width="1.0" stroke-linejoin="round" stroke-linecap="butt" d="m13.59197 75.14372l139.27559 0l0 106.61418l-139.27559 0z" fill-rule="evenodd"/><path fill="#000000" fill-opacity="0.0" d="m153.9282 100.33271l-105.60133 0l0 24.88552l42.30723 -6.988472l0 34.945l-42.30723 -7.1577606l0 36.820404" fill-rule="evenodd"/><path stroke="#ffffff" stroke-width="4.0" stroke-linejoin="round" stroke-linecap="butt" d="m153.9282 100.33271l-105.60133 0l0 24.88552l42.30723 -6.988472l0 34.945l-42.30723 -7.1577606l0 36.820404" fill-rule="evenodd"/></g></svg>